<?xml version="1.0" standalone="no"?>
<!DOCTYPE svg PUBLIC "-//W3C//DTD SVG 20010904//EN"
 "http://www.w3.org/TR/2001/REC-SVG-20010904/DTD/svg10.dtd">
<svg version="1.0" xmlns="http://www.w3.org/2000/svg"
 width="338.000000pt" height="338.000000pt" viewBox="0 0 338.000000 338.000000"
 preserveAspectRatio="xMidYMid meet">
<metadata>
Created by potrace 1.11, written by Peter Selinger 2001-2013
</metadata>
<g transform="translate(0.000000,338.000000) scale(0.100000,-0.100000)"
fill="#000000" stroke="none">
<path d="M1433 3243 c45 -47 69 -117 69 -198 0 -88 -32 -222 -80 -330 -38 -87
-44 -97 -109 -196 -78 -119 -12 -106 -608 -115 l-520 -7 -27 -28 c-24 -23 -28
-36 -28 -81 0 -47 4 -58 30 -83 37 -36 21 -35 695 -38 l480 -2 96 -71 c278
-207 536 -550 689 -914 17 -41 35 -84 41 -95 24 -51 80 -262 98 -372 27 -154
27 -264 0 -373 -20 -84 -70 -190 -110 -233 l-20 -22 552 -3 c399 -1 556 1 565
9 19 16 21 3148 2 3167 -9 9 -229 12 -927 12 l-915 0 27 -27z"/>
<path d="M750 1652 c-229 -23 -372 -93 -493 -242 -177 -217 -208 -509 -80
-753 44 -83 170 -218 247 -262 107 -62 248 -97 381 -96 229 3 463 154 571 368
56 112 68 164 68 303 1 143 -8 187 -68 310 -70 146 -219 278 -383 339 -57 21
-187 39 -243 33z m80 -207 c0 -51 2 -55 24 -55 29 0 153 -38 160 -49 4 -6 -15
-95 -29 -138 -3 -9 -16 -7 -51 8 -67 28 -194 31 -223 5 -55 -50 -31 -93 71
-131 117 -45 182 -81 220 -123 113 -126 52 -325 -115 -378 l-56 -17 -3 -71 -3
-71 -55 0 -55 0 -3 73 -3 72 -38 0 c-51 0 -171 37 -177 55 -5 13 19 142 29
151 2 2 24 -5 48 -15 150 -66 316 -30 279 60 -15 34 -50 57 -147 93 -152 57
-206 116 -211 230 -6 118 43 185 164 223 l54 17 0 58 0 58 60 0 60 0 0 -55z"/>
</g>
</svg>
